<svg width="72" height="72" viewBox="0 0 72 72" fill="none" xmlns="http://www.w3.org/2000/svg">
<path d="M0 36C0 16.1178 16.1178 0 36 0C55.8823 0 72 16.1178 72 36C72 55.8823 55.8823 72 36 72C16.1178 72 0 55.8823 0 36Z" fill="#FE5E3B"/>
<g clip-path="url(#clip0_110_3)">
<g clip-path="url(#clip1_110_3)">
<g clip-path="url(#clip2_110_3)">
<path d="M35.491 26.2182C28.5159 20.1176 19.6473 25.4778 19.5019 32.7444C19.4648 34.5964 19.9994 36.4003 21.0635 38.0633H27.9607L29.1875 36.0186C29.5437 35.425 30.4058 35.4059 30.7822 35.9977L33.3706 40.0651L37.1436 32.1C37.4726 31.405 38.4532 31.3829 38.8161 32.0569L42.0504 38.0633H49.9184C55.7468 28.954 44.2279 18.5766 35.491 26.2182Z" fill="white"/>
<path d="M40.6651 39.4452L38.0443 34.578L34.3383 42.4018C34.023 43.0674 33.0956 43.1252 32.7002 42.5038L30.0148 38.2839L29.2953 39.4831C29.1259 39.7654 28.8208 39.9382 28.4915 39.9382H22.5464C22.7328 40.1332 21.7396 39.142 34.8298 52.1644C35.1954 52.5281 35.7864 52.5282 36.152 52.1644C49.0408 39.3423 48.2494 40.1328 48.4354 39.9382H41.4905C41.1456 39.9382 40.8286 39.7489 40.6651 39.4452Z" fill="white"/>
</g>
</g>
</g>
<defs>
<clipPath id="clip0_110_3">
<rect width="32" height="32" fill="white" transform="translate(19.5 22)"/>
</clipPath>
<clipPath id="clip1_110_3">
<rect width="32" height="32" fill="white" transform="translate(19.5 22)"/>
</clipPath>
<clipPath id="clip2_110_3">
<rect width="32" height="28.8744" fill="white" transform="translate(19.5001 23.5627)"/>
</clipPath>
</defs>
</svg>
